# xmcd
#
# Track frame offsets: 
#        150
#        19412
#        38135
#        61060
#        72822
#        87974
#        103004
#        121925
#        143733
#        163518
#
# Disc length: 2332 seconds
#
# Revision: 0
# Processed by: cddbd v1.5.2PL0 Copyright (c) Steve Scherf et al.
# Submitted via: ExactAudioCopy v0.99pb3
#
DISCID=7e091a0a
DTITLE=Volker Strifler - Let The Music Rise
DYEAR=2012
DGENRE=Blues
TTITLE0=Going To Brownsville
TTITLE1=The Great Escape
TTITLE2=Redemption
TTITLE3=Jigsaw Puzzle Blues
TTITLE4=Wait A Minute
TTITLE5=Let The Music Rise
TTITLE6=It's Getting Late
TTITLE7=Last Night I Had A Dream
TTITLE8=When Daylight Comes
TTITLE9=Hoogie Boogie
EXTD=
EXTT0=
EXTT1=
EXTT2=
EXTT3=
EXTT4=
EXTT5=
EXTT6=
EXTT7=
EXTT8=
EXTT9=
PLAYORDER=
